<svg xmlns="http://www.w3.org/2000/svg" viewBox="0 0 949.29 635.3"><defs><style>.cls-1{fill:#fff;}</style></defs><title>logo</title><g id="Layer_2" data-name="Layer 2"><g id="logo"><polygon class="cls-1" points="949.29 635.3 215.71 635.3 582.5 0 949.29 635.3"/><polygon class="cls-1" points="618.99 635.3 0 635.3 309.5 99.24 423.12 296.04 472.2 381.04 618.99 635.3"/><polygon points="405.8 326.05 379.82 371.05 309.49 249.24 99.26 613.37 47.3 613.37 309.49 159.24 405.8 326.05"/><polygon class="cls-1" points="930.55 622.85 908.99 635.3 839.59 635.3 582.49 190 472.2 381.04 454.87 411.05 428.89 456.05 325.4 635.3 256 635.3 234.44 622.85 379.82 371.05 405.8 326.05 423.12 296.04 582.49 20 930.55 622.85"/><polygon points="901.98 613.36 901.96 613.37 850.03 613.37 582.5 150 314.97 613.37 263.03 613.37 263.01 613.36 582.5 60 901.98 613.36"/></g></g></svg>